<svg id="visual" viewBox="0 0 900 450" width="900" opacity="50%" height="450" xmlns="http://www.w3.org/2000/svg" xmlns:xlink="http://www.w3.org/1999/xlink" version="1.1"><g><g transform="translate(300 112)"><path d="M0 -23.1L20 -11.6L20 11.6L0 23.1L-20 11.6L-20 -11.6Z" fill="none" stroke="#db0bb2" stroke-width="2"></path></g><g transform="translate(631 141)"><path d="M0 -21L18.2 -10.5L18.2 10.5L0 21L-18.2 10.5L-18.2 -10.5Z" fill="none" stroke="#db0bb2" stroke-width="2"></path></g><g transform="translate(510 399)"><path d="M0 -21L18.2 -10.5L18.2 10.5L0 21L-18.2 10.5L-18.2 -10.5Z" fill="none" stroke="#db0bb2" stroke-width="2"></path></g><g transform="translate(283 261)"><path d="M0 -20L17.3 -10L17.3 10L0 20L-17.3 10L-17.3 -10Z" stroke="#db0bb2" fill="none" stroke-width="2"></path></g><g transform="translate(703 342)"><path d="M0 -22L19.1 -11L19.1 11L0 22L-19.1 11L-19.1 -11Z" stroke="#db0bb2" fill="none" stroke-width="2"></path></g><g transform="translate(119 179)"><path d="M0 -21L18.2 -10.5L18.2 10.5L0 21L-18.2 10.5L-18.2 -10.5Z" stroke="#db0bb2" fill="none" stroke-width="2"></path></g><g transform="translate(66 378)"><path d="M0 -22L19.1 -11L19.1 11L0 22L-19.1 11L-19.1 -11Z" stroke="#db0bb2" fill="none" stroke-width="2"></path></g><g transform="translate(305 426)"><path d="M0 -21L18.2 -10.5L18.2 10.5L0 21L-18.2 10.5L-18.2 -10.5Z" stroke="#db0bb2" fill="none" stroke-width="2"></path></g><g transform="translate(229 293)"><path d="M0 -21L18.2 -10.5L18.2 10.5L0 21L-18.2 10.5L-18.2 -10.5Z" stroke="#db0bb2" fill="none" stroke-width="2"></path></g><g transform="translate(17 438)"><path d="M0 -21L18.2 -10.5L18.2 10.5L0 21L-18.2 10.5L-18.2 -10.5Z" stroke="#db0bb2" fill="none" stroke-width="2"></path></g></g></svg>