<svg id="visual" viewBox="0 0 900 600" width="900" height="600" xmlns="http://www.w3.org/2000/svg" xmlns:xlink="http://www.w3.org/1999/xlink" version="1.1"><g><g transform="translate(303 446)"><path d="M0 -71.4L61.9 -35.7L61.9 35.7L0 71.4L-61.9 35.7L-61.9 -35.7Z" fill="none" stroke="#eed6e6" stroke-width="4"></path></g><g transform="translate(157 237)"><path d="M0 -45L39 -22.5L39 22.5L0 45L-39 22.5L-39 -22.5Z" fill="none" stroke="#eed6e6" stroke-width="4"></path></g><g transform="translate(581 444)"><path d="M0 -44L38.1 -22L38.1 22L0 44L-38.1 22L-38.1 -22Z" stroke="#eed6e6" fill="none" stroke-width="4"></path></g><g transform="translate(443 524)"><path d="M0 -17L14.7 -8.5L14.7 8.5L0 17L-14.7 8.5L-14.7 -8.5Z" stroke="#eed6e6" fill="none" stroke-width="4"></path></g><g transform="translate(176 41)"><path d="M0 -62L53.7 -31L53.7 31L0 62L-53.7 31L-53.7 -31Z" stroke="#eed6e6" fill="none" stroke-width="4"></path></g><g transform="translate(454 62)"><path d="M0 -49L42.4 -24.5L42.4 24.5L0 49L-42.4 24.5L-42.4 -24.5Z" stroke="#eed6e6" fill="none" stroke-width="4"></path></g><g transform="translate(830 156)"><path d="M0 -56L48.5 -28L48.5 28L0 56L-48.5 28L-48.5 -28Z" stroke="#eed6e6" fill="none" stroke-width="4"></path></g><g transform="translate(382 268)"><path d="M0 -25L21.7 -12.5L21.7 12.5L0 25L-21.7 12.5L-21.7 -12.5Z" stroke="#eed6e6" fill="none" stroke-width="4"></path></g></g></svg>