<?xml version="1.0" encoding="UTF-8"?>
<svg xmlns="http://www.w3.org/2000/svg" id="Capa_1" version="1.1" viewBox="0 0 81.4 42.3">
  <!-- Generator: Adobe Illustrator 29.0.1, SVG Export Plug-In . SVG Version: 2.1.0 Build 192)  -->
  <defs>
    <style>
      .st0 {
        fill: #fff;
      }

      .st1 {
        fill: #015f62;
      }
    </style>
  </defs>
  <g>
    <path class="st1" d="M35.2,5.2c0,3.8-2.6,5.1-4.7,5.1h-2.4V.9l-.2-.7h2.7c2.2,0,4.6,1.3,4.6,5.1M36.6,5.2c0-2.8,1.7-5.2,4.2-5.2s4.2,2.4,4.2,5.2-1.7,5.2-4.2,5.2-4.2-2.3-4.2-5.2M42.7,5.2c0-2-.8-3.6-1.8-3.6s-1.8,1.6-1.8,3.6.8,3.6,1.8,3.6,1.8-1.6,1.8-3.6M53.6.1v10.1h-1.7v-3.1l-3.4-3.6v6.6h-1.6V.9l-.3-.7h1.9l3.4,3.7V.1h1.7ZM74,11.5c-4.6,0-7.9,5-8,11.1-.2,6.1,2.8,11.1,7.3,11.1s7.9-5,8.1-11.1c.2-6.1-2.8-11.1-7.4-11.1M77.1,22.6c-.1,4.2-1.7,7.6-3.5,7.6s-3.2-3.4-3.1-7.6c.1-4.2,1.7-7.7,3.5-7.7s3.2,3.4,3.1,7.7M59.6,11.9v16.9c1.5.1,2.3.2,3.8.4,0-5.7,0-11.5,0-17.2h-3.8M51.9,11.8h-3.8v16.2c2.8,0,5.5.3,8.2.5.3-.9.5-1.4.9-2.5-2.1-.1-3.2-.2-5.3-.3v-13.9M41.2,11.7v16.2h3.8V11.7h-3.8M33.3,15.7c-.2-1.1.9-1.9,1.9-1.9s2.4.8,2.4.8v-2.4c-.7-.5-2-.7-3.2-.7-3.4,0-4.9,2.1-5,4.3-.1,4,5,5.1,5.3,8.2,0,1.1-.8,2.1-2.4,2.2-1.5,0-3.1-1.3-3.1-1.3v2.6c.9.5,2.1.7,4,.7,2.7,0,5.5-1.6,5.5-4.6s-4.8-5.1-5.3-7.9M22.4,11.9h-3.5c-1.7,5.9-3,11.9-4.8,17.7,1.1-.1,1.8-.2,2.9-.3.4-1.3.6-2.1,1-3.7,1.6-.1,2.4-.2,4-.3.4,1.5.6,2.2,1,3.4,1.6-.1,2.4-.2,4-.3-1.9-5.4-3.1-11-4.7-16.5M18.7,23c.5-2.2.8-3.3,1.3-5.5.5,2.1.8,3.2,1.3,5.3-1.1,0-1.6.1-2.6.2M7.5,32.5c3.1-.5,5.4-3.1,5.5-6.3,0-2.8-1.3-5-3.4-5.7,1.3-1,2-2.8,2-4.5,0-2.6-1.7-4.4-4.9-4.4H0c.2.5.3.8.4,1.3v20.7c2.8-.6,4.2-.8,7.1-1.3M4.4,14.8h1c1.5,0,2.4.5,2.4,2s-.9,2.4-2.4,2.4c-.4,0-.6,0-1,0v-4.4M4.4,23.2c.4,0,.6,0,1.1-.1,2-.2,3.4.8,3.4,3s-1.5,3.5-3.4,3.8c-.4,0-.6,0-1.1.1v-6.8M32.9,5.2c0-2-.7-3.4-2.3-3.4h-.3v6.9h.3c1.5,0,2.3-1.5,2.3-3.4"></path>
    <path class="st0" d="M35.2,15c-.3,0-.7.1-.9.4-.1.2-.1.3-.1.4,0,.2,0,.4.2.5.3-.1.6-.2.9-.2,1.4,0,2.3.7,2.3.7v-.8l-.7-.5s-.7-.5-1.8-.5"></path>
    <polygon class="st1" points="13.6 36.3 14.8 38.5 16 36.3 17 36.3 15.2 39.5 15.2 42.3 14.1 42.3 14.1 39.5 12.4 36.3 13.6 36.3"></polygon>
    <polygon class="st1" points="18.3 36.3 22 36.3 22 37.1 19.5 37.1 19.5 38.8 21.4 38.8 21.4 39.6 19.5 39.6 19.5 41.5 22 41.5 22 42.3 18.4 42.3 18.4 36.8 18.3 36.3"></polygon>
    <path class="st1" d="M23.5,36.3h2c.3,0,.7,0,1,.1.3,0,.5.3.7.5.2.3.3.5.3.9s0,.5-.2.7c-.1.2-.3.4-.5.5s-.4.3-.6.3l1.8,2.8h-1.3l-1.7-2.6h-.5v2.6h-1.1v-5.9c-.1,0,0,0,0,0ZM24.8,37.1v1.7h.5c.2,0,.4,0,.5,0,.2,0,.3-.1.4-.3,0-.1.1-.3.1-.5s0-.3-.1-.5c0-.1-.2-.2-.3-.3-.1,0-.3,0-.5,0,0,0-.7,0-.7,0Z"></path>
    <path class="st1" d="M33.2,37.7c0,.2,0,.5-.1.6-.1.2-.3.3-.5.5s-.4.2-.6.2c.3,0,.5.1.7.3s.4.3.5.5.2.5.2.7,0,.5-.2.8c-.1.2-.3.4-.5.5s-.4.2-.7.3c-.3,0-.5,0-.8,0h-2.1v-5.5h0v-.4h0c0-.1,2.1-.1,2.1-.1h.7c.2,0,.5.1.6.2.2,0,.3.3.5.4.1.2.2.4.2.7M32.1,37.9c0-.2,0-.3-.1-.4,0-.1-.2-.2-.3-.3-.1,0-.3,0-.4,0h-.8v1.5h.8c.1,0,.3,0,.4,0,.1,0,.2-.1.3-.3s.1-.3.1-.4M32.3,40.5c0-.3,0-.5-.2-.6-.1-.1-.3-.3-.5-.3s-.4-.1-.6-.1h-.6v2h.9c.2,0,.4,0,.5-.1.1,0,.3-.2.3-.3s.1-.3.1-.5"></path>
    <path class="st1" d="M37.5,36.3l2.1,6h-1.2l-.6-1.7h-1.8l-.6,1.7h-.9l2.1-6h.9ZM37,37.7l-.6,2h1.2s-.6-2-.6-2Z"></path>
    <path class="st1" d="M45.1,36.3l1.3,3.4c0,.1.1.3.1.5s0,.3,0,.5c0-.2,0-.3.1-.5,0-.1,0-.3.1-.5l1.3-3.4h1.4v6h-1.1v-4.6c0,0,0,.2,0,.3,0,0,0,.2-.1.3l-1.5,4h-.6l-1.5-4c0,0,0-.2-.1-.3,0,0,0-.2,0-.3v4.6h-.9v-5.9c-.1,0,1.4,0,1.4,0h0Z"></path>
    <path class="st1" d="M53.8,36.3l2.1,6h-1.2l-.6-1.7h-1.8l-.6,1.7h-.9l2.1-6h.9ZM53.1,37.7l-.6,2h1.2l-.6-2Z"></path>
    <polygon class="st1" points="57.8 37.1 56.2 37.1 56.2 36.3 60.6 36.3 60.6 37.1 59 37.1 59 42.3 57.8 42.3 57.8 37.1"></polygon>
    <polygon class="st1" points="62 36.3 65.7 36.3 65.7 37.1 63.2 37.1 63.2 38.8 65.1 38.8 65.1 39.6 63.2 39.6 63.2 41.5 65.7 41.5 65.7 42.3 62.1 42.3 62.1 36.8 62 36.3"></polygon>
  </g>
  <g>
    <path class="st0" d="M7.7,33.7c-2.6.4-4,.7-6.5,1.1v.9c2.8-.5,4.2-.8,7-1.3.7-.1,1.3-.3,2-.7.6-.3,1.1-.7,1.6-1.3.3-.3.5-.6.7-1,.2-.4.3-.7.5-1.2,0-.4.1-.7.3-1.1-.9,2.3-3,4-5.7,4.5"></path>
    <path class="st0" d="M7.8,25.4c0-.3-.2-.5-.4-.6-.4-.4-1-.5-1.5-.5s-.3,0-.4,0h-.2v1c.3,0,.5,0,.9,0,.6,0,1.1,0,1.5.1"></path>
    <path class="st0" d="M6.9,17h0c0-.5,0-.7-.2-.9-.2-.2-.5-.3-1.1-.3s0,0-.1,0h-.1v1.1h1.6"></path>
    <path class="st0" d="M23.2,29.8c0,.3.2.5.3.9,1.6-.1,2.4-.2,4-.3,0-.3-.2-.5-.3-.9-1.6.1-2.4.1-4,.3"></path>
    <path class="st0" d="M17.1,30.4h.7c0,.2-.1.5-.3.8-1.1.1-1.7.2-2.8.3,0-.3.2-.6.3-.9.7,0,1.3-.1,2.2-.3"></path>
    <path class="st0" d="M21.6,27.4c-1,0-1.9.1-3.1.3,0-.3.1-.6.3-1,.9,0,1.6-.1,2.6-.2,0,.3.2.7.3.9"></path>
    <path class="st0" d="M33.7,23.9c-.3-.9-1.1-1.6-2-2.4-.5-.5-1.1-.9-1.6-1.5.7,1.7,2.5,2.7,3.6,4"></path>
    <path class="st0" d="M37.5,28c-1.1.9-2.7,1.4-4.3,1.4h-.2c-1.5,0-2.6-.1-3.5-.5v.7c.9.5,2,.7,3.9.7s4.5-1.1,5.1-3.2c-.3.3-.6.7-1,1"></path>
    <path class="st0" d="M41.2,29.1h0v.9h3.7v-.9h-3.7"></path>
    <path class="st0" d="M48.2,29.2h-.1v.9c2.7,0,5.4.3,8,.5.1-.3.2-.6.3-.9h0c-2.7-.2-5.5-.4-8.2-.5"></path>
    <path class="st0" d="M59.6,30h-.3v.9c1.5.1,2.2.2,3.7.4v-.9c-1.3-.1-2-.2-3.4-.3"></path>
    <path class="st0" d="M74,16.1c-.4,0-.9.5-1.3,1.3.2,0,.4-.1.7-.1,1.3,0,2.5,2,2.9,4.7,0-2.8-.8-4.7-1.5-5.5-.2-.2-.5-.3-.7-.3"></path>
    <path class="st0" d="M68.3,32.6c-1.1-1.2-2-2.8-2.6-4.7.7,4.4,3.3,7.7,7,7.7s3-.6,4.2-1.7c-1.1.6-2.3.9-3.6.9-2,0-3.7-.7-5.1-2.2"></path>
    <path class="st0" d="M11.6,20.9c.4-.8.6-1.7.6-2.6-.3.8-.6,1.5-1.1,2.2.2.1.3.3.5.4"></path>
    <path class="st0" d="M13.3,5h1.4c.8,0,1.6,0,2.5.1l2.9.2c.9,0,1.7.1,2.6.1s1,0,1.5,0h.1c0,0,.1,0,.1.1s0,.1-.1.1h-1c-.8,0-1.7,0-2.5.1-1,0-2,.1-3,.2-.9,0-1.8.1-2.8.1s-1.1,0-1.6,0-.8-.2-.9-.6c0-.3,0-.5.2-.7.2-.2.4-.2.6-.2"></path>
    <path class="st0" d="M68.2,5h-1.4c-.8,0-1.6,0-2.5.1-.9,0-1.9.1-2.9.2-.9,0-1.7.1-2.6.1h-1.5c0,0-.1,0-.1,0,0,0-.1,0-.1.1s0,.1.1.1h1c.8,0,1.7,0,2.5.1,1,0,2,.1,3,.2.9,0,1.8.1,2.8.1s1.1,0,1.6,0,.8-.2.9-.6c0-.3,0-.5-.2-.7-.2-.2-.4-.2-.6-.2"></path>
  </g>
</svg>
