<?xml version="1.0" encoding="UTF-8" standalone="no"?>
<!-- Created with Inkscape (http://www.inkscape.org/) -->

<svg
   version="1.1"
   id="svg2"
   width="1033.9299"
   height="276.71069"
   viewBox="0 0 1033.9299 276.71069"
   xmlns="http://www.w3.org/2000/svg"
   xmlns:svg="http://www.w3.org/2000/svg">
  <defs
     id="defs6">
    <clipPath
       clipPathUnits="userSpaceOnUse"
       id="clipPath20">
      <path
         d="M 0,5331.003 H 5438.898 V 0 H 0 Z"
         id="path18" />
    </clipPath>
  </defs>
  <g
     id="g10"
     transform="matrix(1.3333333,0,0,-1.3333333,-3305.9299,5626.3639)">
    <g
       id="g14">
      <g
         id="g16"
         clip-path="url(#clipPath20)">
        <g
           id="g2962"
           transform="translate(2583.2136,4086.0593)">
          <path
             d="m 0,0 c -16.513,0 -29.947,13.434 -29.947,29.948 0,16.512 13.434,29.946 29.947,29.946 9.244,0 17.521,-4.211 23.018,-10.814 L 35.604,59.542 C 27.101,69.754 14.297,76.267 0,76.267 c -25.541,0 -46.32,-20.779 -46.32,-46.319 0,-25.541 20.779,-46.321 46.32,-46.321 14.297,0 27.101,6.513 35.604,16.726 L 23.018,10.814 C 17.521,4.211 9.244,0 0,0"
             style="fill:#acacac;fill-opacity:1;fill-rule:nonzero;stroke:none"
             id="path2964" />
        </g>
        <g
           id="g2966"
           transform="translate(2628.8713,4078.0554)">
          <path
             d="m 0,0 c -10.905,-13.097 -27.323,-21.448 -45.658,-21.448 -32.753,0 -59.399,26.647 -59.399,59.399 0,32.752 26.646,59.399 59.399,59.399 18.335,0 34.753,-8.351 45.658,-21.448 l 12.584,10.461 c -13.909,16.707 -34.854,27.359 -58.242,27.359 -41.78,0 -75.771,-33.99 -75.771,-75.771 0,-41.781 33.991,-75.771 75.771,-75.771 23.388,0 44.333,10.653 58.243,27.36 z"
             style="fill:#d92a2b;fill-opacity:1;fill-rule:nonzero;stroke:none"
             id="path2968" />
        </g>
        <g
           id="g2970"
           transform="translate(2583.2136,4028.613)">
          <path
             d="m 0,0 c -48.189,0 -87.394,39.205 -87.394,87.394 0,48.189 39.205,87.393 87.394,87.393 26.976,0 51.133,-12.287 67.176,-31.556 l 12.625,10.494 c -2.025,2.428 -4.164,4.78 -6.427,7.042 C 53.775,180.366 27.717,191.16 0,191.16 c -27.717,0 -53.775,-10.794 -73.374,-30.393 -19.599,-19.598 -30.392,-45.657 -30.392,-73.373 0,-27.717 10.793,-53.775 30.392,-73.374 19.599,-19.599 45.657,-30.393 73.374,-30.393 27.717,0 53.775,10.794 73.374,30.393 2.263,2.263 4.402,4.615 6.427,7.042 L 67.176,31.556 C 51.133,12.287 26.975,0 0,0"
             style="fill:#3854cc;fill-opacity:1;fill-rule:nonzero;stroke:none"
             id="path2972" />
        </g>
        <g
           id="g3002"
           transform="translate(2718.3489,4113.8584)">
          <path
             d="m 0,0 c 0,-9.385 -5.329,-14.261 -13.3,-14.261 -7.88,0 -13.254,4.876 -13.254,13.985 v 18.724 h 3.598 V -0.046 c 0,-6.947 3.644,-10.857 9.747,-10.857 5.876,0 9.611,3.589 9.611,10.627 V 18.448 H 0 Z"
             style="fill:#3854cc;fill-opacity:1;fill-rule:nonzero;stroke:none"
             id="path3004" />
        </g>
        <g
           id="g3006"
           transform="translate(2750.3171,4132.3066)">
          <path
             d="M 0,0 H 3.507 V -32.204 H 0.638 L -19.95,-5.796 v -26.408 h -3.507 V 0 h 3.371 L 0,-25.809 Z"
             style="fill:#3854cc;fill-opacity:1;fill-rule:nonzero;stroke:none"
             id="path3008" />
        </g>
        <path
           d="m 2766.753,4100.103 h -3.598 v 32.204 h 3.598 z"
           style="fill:#3854cc;fill-opacity:1;fill-rule:nonzero;stroke:none"
           id="path3010" />
        <g
           id="g3012"
           transform="translate(2800.0911,4132.3066)">
          <path
             d="m 0,0 h 3.872 l -13.71,-32.434 h -3.188 L -26.736,0 h 4.008 l 11.341,-27.741 z"
             style="fill:#3854cc;fill-opacity:1;fill-rule:nonzero;stroke:none"
             id="path3014" />
        </g>
        <g
           id="g3016"
           transform="translate(2833.2893,4128.9941)">
          <path
             d="m 0,0 h -19.449 v -10.995 h 17.4 v -3.313 h -17.4 V -25.579 H 0.228 v -3.312 H -23.047 V 3.313 H 0 Z"
             style="fill:#3854cc;fill-opacity:1;fill-rule:nonzero;stroke:none"
             id="path3018" />
        </g>
        <g
           id="g3020"
           transform="translate(2854.1907,4128.9482)">
          <path
             d="m 0,0 h -9.838 v -13.065 h 9.793 c 4.782,0 8.198,2.484 8.198,6.67 C 8.153,-2.392 5.147,0 0,0 m 8.517,-28.845 -9.246,12.513 h -9.109 v -12.513 h -3.599 V 3.358 h 13.71 c 7.015,0 11.524,-3.818 11.524,-9.615 0,-5.382 -3.644,-8.511 -8.654,-9.431 l 9.793,-13.157 z"
             style="fill:#3854cc;fill-opacity:1;fill-rule:nonzero;stroke:none"
             id="path3022" />
        </g>
        <g
           id="g3024"
           transform="translate(2885.1111,4117.9531)">
          <path
             d="m 0,0 c 7.105,-1.564 10.385,-4.187 10.385,-9.155 0,-5.567 -4.555,-9.155 -10.886,-9.155 -5.056,0 -9.2,1.702 -13.026,5.152 l 2.232,2.669 c 3.324,-3.036 6.513,-4.555 10.931,-4.555 4.281,0 7.105,2.254 7.105,5.521 0,3.036 -1.594,4.738 -8.289,6.165 -7.333,1.61 -10.704,4.002 -10.704,9.338 0,5.153 4.418,8.833 10.476,8.833 4.646,0 7.971,-1.334 11.205,-3.956 L 7.333,8.051 c -2.96,2.438 -5.921,3.496 -9.2,3.496 -4.145,0 -6.787,-2.3 -6.787,-5.244 C -8.654,3.22 -7.014,1.518 0,0"
             style="fill:#3854cc;fill-opacity:1;fill-rule:nonzero;stroke:none"
             id="path3026" />
        </g>
        <path
           d="m 2906.741,4100.103 h -3.598 v 32.204 h 3.598 z"
           style="fill:#3854cc;fill-opacity:1;fill-rule:nonzero;stroke:none"
           id="path3028" />
        <g
           id="g3030"
           transform="translate(2927.1438,4128.9482)">
          <path
             d="M 0,0 H -7.47 V -25.487 H 0 c 8.062,0 13.209,5.521 13.209,12.697 C 13.209,-5.613 8.062,0 0,0 M 0,-28.845 H -11.068 V 3.358 H 0 c 10.021,0 16.944,-6.946 16.944,-16.055 0,-9.11 -6.923,-16.148 -16.944,-16.148"
             style="fill:#3854cc;fill-opacity:1;fill-rule:nonzero;stroke:none"
             id="path3032" />
        </g>
        <g
           id="g3034"
           transform="translate(2963.0305,4128.3042)">
          <path
             d="M 0,0 -7.288,-16.424 H 7.242 Z M 16.26,-28.201 H 12.389 L 8.654,-19.69 H -8.7 l -3.78,-8.511 h -3.689 L -1.64,4.232 h 3.371 z"
             style="fill:#3854cc;fill-opacity:1;fill-rule:nonzero;stroke:none"
             id="path3036" />
        </g>
        <g
           id="g3038"
           transform="translate(2996.6379,4128.9482)">
          <path
             d="M 0,0 H -7.47 V -25.487 H 0 c 8.062,0 13.209,5.521 13.209,12.697 C 13.209,-5.613 8.062,0 0,0 M 0,-28.845 H -11.068 V 3.358 H 0 c 10.021,0 16.944,-6.946 16.944,-16.055 0,-9.11 -6.923,-16.148 -16.944,-16.148"
             style="fill:#3854cc;fill-opacity:1;fill-rule:nonzero;stroke:none"
             id="path3040" />
        </g>
        <g
           id="g3042"
           transform="translate(3049.4192,4099.5508)">
          <path
             d="m 0,0 c -9.201,0 -15.987,7.315 -15.987,16.608 0,9.201 6.741,16.7 16.124,16.7 5.784,0 9.246,-2.07 12.434,-5.107 l -2.46,-2.668 c -2.687,2.576 -5.693,4.417 -10.02,4.417 -7.06,0 -12.343,-5.751 -12.343,-13.25 0,-7.499 5.329,-13.342 12.343,-13.342 4.372,0 7.242,1.703 10.294,4.647 L 12.753,5.659 C 9.428,2.254 5.785,0 0,0"
             style="fill:#3854cc;fill-opacity:1;fill-rule:nonzero;stroke:none"
             id="path3044" />
        </g>
        <g
           id="g3046"
           transform="translate(3091.4988,4128.9941)">
          <path
             d="M 0,0 H -19.449 V -10.995 H -2.05 v -3.313 H -19.449 V -25.579 H 0.228 v -3.312 H -23.047 V 3.313 H 0 Z"
             style="fill:#3854cc;fill-opacity:1;fill-rule:nonzero;stroke:none"
             id="path3048" />
        </g>
        <g
           id="g3050"
           transform="translate(3122.4207,4132.3066)">
          <path
             d="M 0,0 H 3.507 V -32.204 H 0.638 L -19.95,-5.796 v -26.408 h -3.507 V 0 h 3.371 L 0,-25.809 Z"
             style="fill:#3854cc;fill-opacity:1;fill-rule:nonzero;stroke:none"
             id="path3052" />
        </g>
        <g
           id="g3054"
           transform="translate(3147.0095,4100.103)">
          <path
             d="m 0,0 h -3.644 v 28.845 h -10.703 v 3.359 H 10.704 V 28.845 H 0 Z"
             style="fill:#3854cc;fill-opacity:1;fill-rule:nonzero;stroke:none"
             id="path3056" />
        </g>
        <g
           id="g3058"
           transform="translate(3177.886,4128.9482)">
          <path
             d="m 0,0 h -9.838 v -13.065 h 9.793 c 4.782,0 8.198,2.484 8.198,6.67 C 8.153,-2.392 5.147,0 0,0 m 8.517,-28.845 -9.246,12.513 h -9.109 v -12.513 h -3.599 V 3.358 h 13.71 c 7.015,0 11.524,-3.818 11.524,-9.615 0,-5.382 -3.644,-8.511 -8.654,-9.431 l 9.793,-13.157 z"
             style="fill:#3854cc;fill-opacity:1;fill-rule:nonzero;stroke:none"
             id="path3060" />
        </g>
        <g
           id="g3062"
           transform="translate(3210.8113,4128.3042)">
          <path
             d="M 0,0 -7.288,-16.424 H 7.242 Z M 16.26,-28.201 H 12.389 L 8.654,-19.69 H -8.7 l -3.78,-8.511 h -3.689 L -1.64,4.232 h 3.37 z"
             style="fill:#3854cc;fill-opacity:1;fill-rule:nonzero;stroke:none"
             id="path3064" />
        </g>
        <g
           id="g3066"
           transform="translate(3233.3508,4132.3066)">
          <path
             d="m 0,0 h 3.598 v -28.845 h 17.946 v -3.359 H 0 Z"
             style="fill:#3854cc;fill-opacity:1;fill-rule:nonzero;stroke:none"
             id="path3068" />
        </g>
        <g
           id="g3070"
           transform="translate(2696.6843,4083.2126)">
          <path
             d="M 0,0 H -3.248 V -11.082 H 0 c 3.506,0 5.744,2.4 5.744,5.521 C 5.744,-2.44 3.506,0 0,0 M 0,-12.542 H -4.812 V 1.46 H 0 c 4.357,0 7.368,-3.02 7.368,-6.981 0,-3.961 -3.011,-7.021 -7.368,-7.021"
             style="fill:#acacac;fill-opacity:1;fill-rule:nonzero;stroke:none"
             id="path3072" />
        </g>
        <g
           id="g3074"
           transform="translate(2724.0295,4083.2327)">
          <path
             d="m 0,0 h -8.457 v -4.781 h 7.566 v -1.44 h -7.566 v -4.901 h 8.556 v -1.441 h -10.12 V 1.44 H 0 Z"
             style="fill:#acacac;fill-opacity:1;fill-rule:nonzero;stroke:none"
             id="path3076" />
        </g>
        <g
           id="g3078"
           transform="translate(2733.927,4084.6731)">
          <path
             d="m 0,0 h 1.564 v -12.542 h 7.804 v -1.461 H 0 Z"
             style="fill:#acacac;fill-opacity:1;fill-rule:nonzero;stroke:none"
             id="path3080" />
        </g>
        <g
           id="g3082"
           transform="translate(2770.4988,4083.2126)">
          <path
             d="m 0,0 h -3.506 v -6.161 h 3.426 c 2.298,0 3.803,1.24 3.803,3.1 C 3.723,-1.04 2.238,0 0,0 m -0.139,-7.602 h -3.367 v -4.94 H -5.07 V 1.46 h 5.189 c 3.129,0 5.189,-1.68 5.189,-4.46 0,-3.041 -2.495,-4.602 -5.447,-4.602"
             style="fill:#acacac;fill-opacity:1;fill-rule:nonzero;stroke:none"
             id="path3084" />
        </g>
        <g
           id="g3086"
           transform="translate(2789.7649,4082.9329)">
          <path
             d="M 0,0 -3.169,-7.142 H 3.149 Z M 7.07,-12.263 H 5.387 l -1.624,3.701 h -7.546 l -1.644,-3.701 H -7.031 L -0.713,1.84 h 1.465 z"
             style="fill:#acacac;fill-opacity:1;fill-rule:nonzero;stroke:none"
             id="path3088" />
        </g>
        <g
           id="g3090"
           transform="translate(2812.0598,4083.2126)">
          <path
             d="m 0,0 h -4.278 v -5.681 h 4.258 c 2.08,0 3.565,1.08 3.565,2.901 C 3.545,-1.04 2.238,0 0,0 m 3.704,-12.542 -4.021,5.441 h -3.961 v -5.441 H -5.843 V 1.46 h 5.962 c 3.05,0 5.01,-1.66 5.01,-4.18 0,-2.341 -1.584,-3.701 -3.763,-4.101 l 4.259,-5.721 z"
             style="fill:#acacac;fill-opacity:1;fill-rule:nonzero;stroke:none"
             id="path3092" />
        </g>
        <g
           id="g3094"
           transform="translate(2833.0281,4082.9329)">
          <path
             d="M 0,0 -3.169,-7.142 H 3.149 Z M 7.07,-12.263 H 5.387 l -1.624,3.701 h -7.546 l -1.644,-3.701 H -7.031 L -0.713,1.84 h 1.465 z"
             style="fill:#acacac;fill-opacity:1;fill-rule:nonzero;stroke:none"
             id="path3096" />
        </g>
        <g
           id="g3098"
           transform="translate(2855.1047,4070.4299)">
          <path
             d="m 0,0 c -4.357,0 -7.051,3.201 -7.051,7.222 0,3.861 2.793,7.261 6.952,7.261 2.337,0 3.783,-0.68 5.169,-1.86 l -1.009,-1.2 c -1.07,0.94 -2.258,1.6 -4.219,1.6 -3.07,0 -5.269,-2.621 -5.269,-5.761 0,-3.361 2.12,-5.842 5.487,-5.842 1.584,0 3.05,0.621 4.001,1.401 v 3.481 h -4.219 v 1.42 H 5.566 V 2.141 C 4.278,0.98 2.337,0 0,0"
             style="fill:#acacac;fill-opacity:1;fill-rule:nonzero;stroke:none"
             id="path3100" />
        </g>
        <g
           id="g3102"
           transform="translate(2882.1726,4076.6516)">
          <path
             d="m 0,0 c 0,-4.081 -2.317,-6.202 -5.783,-6.202 -3.426,0 -5.763,2.121 -5.763,6.082 v 8.141 h 1.564 V -0.02 c 0,-3.021 1.585,-4.721 4.238,-4.721 2.556,0 4.18,1.56 4.18,4.621 V 8.021 H 0 Z"
             style="fill:#acacac;fill-opacity:1;fill-rule:nonzero;stroke:none"
             id="path3104" />
        </g>
        <g
           id="g3106"
           transform="translate(2897.8723,4082.9329)">
          <path
             d="M 0,0 -3.169,-7.142 H 3.149 Z M 7.07,-12.263 H 5.387 l -1.624,3.701 h -7.546 l -1.644,-3.701 H -7.031 L -0.713,1.84 h 1.465 z"
             style="fill:#acacac;fill-opacity:1;fill-rule:nonzero;stroke:none"
             id="path3108" />
        </g>
        <g
           id="g3110"
           transform="translate(2918.0686,4070.6702)">
          <path
             d="m 0,0 h -1.584 v 5.541 l -5.764,8.462 h 1.901 l 4.675,-7.002 4.713,7.002 H 5.764 L 0,5.561 Z"
             style="fill:#acacac;fill-opacity:1;fill-rule:nonzero;stroke:none"
             id="path3112" />
        </g>
      </g>
    </g>
  </g>
</svg>
