<?xml version="1.0" encoding="utf-8"?>
<!-- Generator: Adobe Illustrator 22.0.1, SVG Export Plug-In . SVG Version: 6.00 Build 0)  -->
<svg version="1.1" id="Capa_1" xmlns="http://www.w3.org/2000/svg" xmlns:xlink="http://www.w3.org/1999/xlink" x="0px" y="0px"
	 viewBox="0 0 332.3 94.4" style="enable-background:new 0 0 332.3 94.4;" xml:space="preserve">
<style type="text/css">
	.st0{fill-rule:evenodd;clip-rule:evenodd;}
	.st1{fill-rule:evenodd;clip-rule:evenodd;fill:#E58D21;}
	.st2{fill-rule:evenodd;clip-rule:evenodd;fill:#FFFFFF;}
</style>
<g>
	<g>
		<polygon class="st0" points="285.1,0 287.5,0.1 289.9,0.3 292.2,0.6 294.6,1 296.8,1.5 299.1,2.1 301.3,2.9 303.4,3.7 305.5,4.7 
			307.5,5.7 309.5,6.8 311.4,8.1 313.3,9.4 315.1,10.8 316.8,12.3 318.4,13.8 320,15.5 321.5,17.2 322.9,19 324.2,20.8 325.4,22.8 
			326.5,24.7 327.6,26.8 328.5,28.8 329.4,31 330.1,33.2 330.7,35.4 331.3,37.7 331.7,40 332,42.4 332.2,44.8 332.3,47.2 
			332.2,49.6 332,52 331.7,54.4 331.3,56.7 330.7,59 330.1,61.2 329.4,63.4 328.5,65.6 327.6,67.7 326.5,69.7 325.4,71.7 
			324.2,73.6 322.9,75.4 321.5,77.2 320,78.9 318.4,80.6 316.8,82.1 315.1,83.6 313.3,85 311.4,86.3 309.5,87.6 307.5,88.7 
			305.5,89.8 303.4,90.7 301.3,91.5 299.1,92.3 296.8,92.9 294.6,93.4 292.2,93.9 289.9,94.2 287.5,94.3 285.1,94.4 283.1,94.4 
			281.2,94.2 279.3,94.1 277.5,93.8 275.6,93.5 273.8,93.1 272,92.6 270.3,92.1 268.5,91.4 266.8,90.7 265.2,90 263.5,89.2 
			261.9,88.4 260.3,87.4 258.8,86.5 257.3,85.4 255.9,84.3 254.5,83.2 253.2,82 251.9,80.7 250.6,79.5 249.4,78.2 248.3,76.8 
			247.2,75.3 246.1,73.9 245.1,72.4 244.2,70.8 243.3,69.2 242.5,67.6 241.7,65.9 241.6,65.6 32.7,65.6 31.1,65.5 29.5,65.4 
			27.8,65.2 26.2,64.9 24.6,64.6 23.1,64.1 21.5,63.6 20,63 18.6,62.3 17.2,61.6 15.8,60.8 14.5,60 13.2,59.1 12,58.1 10.7,57.1 
			9.6,56 8.6,54.8 7.5,53.6 6.5,52.4 5.6,51.1 4.8,49.8 4,48.4 3.2,47 2.6,45.6 2,44 1.5,42.5 1,41 0.7,39.4 0.4,37.8 0.2,36.1 
			0.1,34.5 0,32.8 0.1,31.1 0.2,29.5 0.4,27.8 0.7,26.2 1,24.6 1.5,23.1 2,21.5 2.6,20.1 3.2,18.6 4,17.2 4.8,15.8 5.6,14.5 
			6.5,13.2 7.5,12 8.5,10.8 9.6,9.6 10.7,8.6 12,7.6 13.2,6.5 14.5,5.6 15.8,4.8 17.2,4 18.6,3.2 20,2.6 21.5,2 23.1,1.5 24.6,1.1 
			26.2,0.7 27.8,0.4 29.5,0.2 31.1,0.1 32.7,0 		"/>
		<path class="st1" d="M32.8,4.6h252.3c23.5,0,42.6,19.1,42.6,42.6c0,23.6-19.1,42.7-42.6,42.7c-18.7,0-34.6-12.1-40.3-28.8H32.8
			c-15.6,0-28.3-12.7-28.3-28.3C4.5,17.3,17.2,4.6,32.8,4.6z"/>
		<path class="st2" d="M33.1,10.9h229.6c-12.2,7.6-20.3,21-20.3,36.3c0,2.6,0.3,5.2,0.7,7.7h-210c-12.1,0-22-9.9-22-22
			S21,10.9,33.1,10.9z"/>
		<g>
			<path class="st0" d="M218.4,46.5V33.6c4.1,0,7.4-1.7,7.4-3.8s-3.3-3.8-7.4-3.8v-7.3c0.2-0.1,0.5-0.1,0.7-0.1
				c9.8,0,19.6,4.4,19.5,11.6c-0.2,5.1-6.2,9.1-13.8,10.3c2.6,2.4,8.3,1,12.1-4l0.1,3.4C233.4,46.6,225.2,49,218.4,46.5z
				 M218.4,18.8v7.3c-4.1,0-7.4,1.7-7.4,3.8s3.3,3.8,7.4,3.8v12.9c-2.1-0.8-4.1-2-5.8-3.9l0,0v5.8c-9.3-1.9-16.5-7.5-16.5-14.4
				C196.2,25.8,206.1,19,218.4,18.8L218.4,18.8z M130.6,41v-7.9c3.5,0,6.5-1.5,6.5-3.3c0-1.8-2.9-3.3-6.5-3.3V19
				c8.6,0.1,19.4,4.4,19.4,11.5C149.7,36.6,140.7,41.2,130.6,41L130.6,41z M174.7,18.3c-12.7,0-23,6.5-23,14.5
				c0,8.1,10.3,14.5,23,14.5c7.6,0,14.3-2.3,18.6-5.9v-5.1c-2.3,1.4-5.8,2.3-9.6,2.3c-4.6,0-8.6-1.3-10.8-3.2h14.4v-5.5h-15.9
				c2.3-6.5,16.4-4.9,21.9-1.5v-4.4C189.1,20.7,182.3,18.3,174.7,18.3L174.7,18.3z M42.2,35.9c4.1,0,7.4-1.7,7.4-3.8
				s-3.3-3.8-7.4-3.8v-9.7c10.4,1.4,18.1,7.2,18.1,14.2s-7.8,12.9-18.1,14.2V35.9L42.2,35.9z M130.6,19v7.5c-3.6,0-6.5,1.5-6.5,3.3
				c0,1.9,2.9,3.3,6.5,3.3V41c-2.2,0-4.4-0.3-6.6-0.8l0,0v8.2c-9.3-1.9-16.5-7.5-16.5-14.2c0-8.4,10.2-15.2,22.9-15.2
				C130.5,19,130.5,19,130.6,19L130.6,19z M85.7,18.3c-12.8,0-23.1,6.5-23.1,14.5c0,8.1,10.3,14.5,23.1,14.5
				c7.6,0,14.3-2.3,18.6-5.9v-5.1c-2.3,1.4-5.8,2.3-9.6,2.3c-4.6,0-8.6-1.3-10.8-3.2h14.4v-5.5H82.3c2.3-6.5,16.4-4.9,21.9-1.5v-4.4
				C100,20.7,93.3,18.3,85.7,18.3L85.7,18.3z M42.2,28.4c-4.1,0-7.4,1.7-7.4,3.8s3.3,3.8,7.4,3.8l0,0v11.2c-1.5,0.2-3.1,0.3-4.7,0.3
				c-7.6,0-14.2-2.3-18.5-5.9V24.3c4.2-3.6,10.9-5.9,18.5-5.9c1.6,0,3.2,0.1,4.7,0.3V28.4L42.2,28.4L42.2,28.4z"/>
		</g>
		<circle class="st0" cx="285.1" cy="47.2" r="36.3"/>
		<g>
			<path class="st1" d="M287.5,38.4L287.5,38.4V27.8C299.6,27.9,315,34,314.8,44c-0.4,8.8-13.1,15.2-27.4,15V47.8l0,0
				c5.1,0,9.2-2.1,9.2-4.7C296.7,40.4,292.5,38.4,287.5,38.4L287.5,38.4z M287.5,38.4c-5.1,0-9.2,2.1-9.2,4.7c0,2.6,4.1,4.7,9.2,4.7
				V59c-3-0.1-6.2-0.4-9.3-1.1v11.6C265,66.8,254.8,59,254.8,49.3c0-11.9,14.5-21.5,32.4-21.5c0.1,0,0.2,0,0.3,0V38.4z"/>
		</g>
		<g>
			<path class="st0" d="M243.4,18.1c0.3,0,0.5-0.1,0.6-0.2c0.2-0.1,0.2-0.2,0.2-0.4c0-0.1-0.1-0.2-0.1-0.3c-0.1-0.1-0.2-0.1-0.3-0.2
				c-0.1-0.1-0.2-0.1-0.4-0.1v-0.5c0.4,0.1,0.6,0.1,0.8,0.1c0.2,0.1,0.3,0.2,0.4,0.4s0.2,0.3,0.2,0.5c0,0.3-0.1,0.5-0.3,0.7
				c-0.2,0.2-0.4,0.3-0.7,0.3c0.1,0.1,0.2,0.1,0.3,0.2c0.1,0.1,0.3,0.4,0.5,0.7l0.4,0.7h-0.7l-0.3-0.5c-0.3-0.5-0.5-0.7-0.6-0.8l0,0
				V18.1L243.4,18.1z M243.4,21.5c0,0,0.1,0,0.1,0c0.6,0,1.1-0.2,1.6-0.5c0.5-0.3,0.9-0.7,1.2-1.2c0.3-0.5,0.5-1.1,0.5-1.6
				s-0.2-1.1-0.5-1.6c-0.3-0.5-0.7-0.9-1.2-1.2c-0.5-0.3-1.1-0.4-1.6-0.4c-0.1,0-0.1,0-0.1,0v0.6c0,0,0.1,0,0.1,0l0,0
				c0.5,0,0.9,0.1,1.3,0.4c0.4,0.2,0.8,0.6,1,1c0.3,0.4,0.4,0.9,0.4,1.3c0,0.5-0.1,0.9-0.4,1.4c-0.2,0.4-0.6,0.7-1,1
				s-0.9,0.4-1.3,0.4c-0.1,0-0.1,0-0.1,0V21.5z M242.6,18.1h0.7c0.1,0,0.1,0,0.1,0v0.6c-0.1-0.1-0.3-0.1-0.5-0.1h-0.3V20H242v-3.4
				h1.2c0.1,0,0.1,0,0.2,0v0.5c-0.1,0-0.1,0-0.2,0h-0.6V18.1L242.6,18.1z M243.4,15.1c-0.5,0.1-1,0.2-1.5,0.4
				c-0.5,0.3-0.9,0.7-1.2,1.2s-0.5,1-0.5,1.6s0.2,1.1,0.5,1.6c0.3,0.5,0.7,0.9,1.2,1.2c0.5,0.3,1,0.4,1.5,0.5v-0.6
				c-0.5,0-0.9-0.2-1.2-0.4c-0.5-0.3-0.8-0.6-1-1c-0.3-0.5-0.4-0.9-0.4-1.4c0-0.5,0.1-0.9,0.4-1.3c0.3-0.4,0.6-0.8,1-1
				c0.4-0.3,0.8-0.4,1.2-0.4V15.1z"/>
		</g>
		<path class="st0" d="M200.7,81.6v-1.7h1.5l-1.5-3.5V74h1.3l4.3,9.6h-2.6l-0.8-1.9H200.7L200.7,81.6z M218.9,81.8v1.8h-7.3V74h2.4
			v7.8H218.9z M200.7,74v2.4l-0.1-0.2l-1.4,3.7h1.5v1.7h-2.1l-0.7,1.9h-2.5l3.9-9.6H200.7L200.7,74z M168.7,83.6v-2l0,0
			c0.9,0,1.6-0.3,2.2-0.8c0.6-0.6,0.8-1.2,0.8-2.1c0-0.9-0.3-1.6-0.8-2.1c-0.6-0.6-1.3-0.8-2.2-0.8l0,0v-2l0,0c1.6,0,2.9,0.5,4,1.5
			c1,1,1.5,2.1,1.5,3.4c0,1.3-0.5,2.5-1.6,3.4C171.6,83.1,170.3,83.6,168.7,83.6L168.7,83.6L168.7,83.6z M189.9,74v9.6h-2l-5.3-6.1
			v6.1h-2.4V74h2.2l5.1,5.8V74H189.9z M168.7,73.9v2c-0.9,0-1.7,0.3-2.2,0.8c-0.6,0.5-0.9,1.2-0.9,2.1c0,0.9,0.3,1.6,0.9,2.1
			c0.5,0.5,1.3,0.8,2.2,0.8v2c-1.6,0-2.9-0.5-4-1.5c-1-1-1.5-2.1-1.5-3.4c0-1.3,0.5-2.4,1.5-3.4C165.8,74.3,167.1,73.9,168.7,73.9
			L168.7,73.9z M129.2,81.6v-1.7h1.5l-1.5-3.5V74h1.3l4.2,9.6h-2.5l-0.8-1.9H129.2L129.2,81.6z M148.4,80.6v2.1
			c-1.2,0.7-2.4,1-3.8,1c-1.7,0-3-0.5-4.1-1.4c-1-0.9-1.5-2.1-1.5-3.4c0-1.4,0.5-2.5,1.6-3.5s2.4-1.4,4.2-1.4c1.4,0,2.5,0.3,3.4,0.8
			v2.1c-1.2-0.7-2.2-1-3.3-1c-1,0-1.8,0.3-2.5,0.8c-0.6,0.6-1,1.2-1,2.1c0,0.9,0.3,1.6,1,2.1c0.7,0.5,1.5,0.8,2.4,0.8
			c0.5,0,1-0.1,1.4-0.2C146.8,81.3,147.6,81.1,148.4,80.6L148.4,80.6z M157.1,74v9.6h-2.4V74H157.1z M129.2,74v2.4l-0.1-0.2
			l-1.4,3.7h1.5v1.7H127l-0.7,1.9h-2.5l3.9-9.6H129.2L129.2,74z M98.5,79.8v-1.9c0.4-0.1,0.7-0.1,0.9-0.3c0.3-0.2,0.4-0.5,0.4-0.8
			c0-0.7-0.4-1.1-1.3-1.1V74h0.6c0.9,0,1.7,0.3,2.2,0.8c0.6,0.5,0.9,1.2,0.9,1.9c0,1.1-0.6,1.8-1.6,2.3c0.5,0.3,0.9,0.8,1.4,1.8
			c0.4,1,0.9,1.9,1.3,2.7h-2.6c-0.2-0.4-0.5-1-0.8-1.8c-0.4-0.9-0.7-1.5-1-1.7C98.7,79.9,98.6,79.8,98.5,79.8L98.5,79.8z M118.4,74
			v9.6h-2l-5.3-6.1v6.1h-2.4V74h2.2l5.1,5.8V74H118.4z M44.6,74v9.6h-2.4V74H44.6L44.6,74z M98.5,74v1.8c-0.1,0-0.1,0-0.1,0h-1.2
			v2.2h1.3h0.1v1.9c-0.2-0.1-0.4-0.2-0.6-0.2h-0.7v3.9h-2.4V74H98.5L98.5,74z M60.7,74v9.6h-2l-5.3-6.1v6.1h-2.4V74h2.2l5.1,5.8V74
			H60.7L60.7,74z M75.8,74v1.8h-3.4v7.8H70v-7.8h-3.4V74H75.8L75.8,74z M88.7,81.8v1.8h-7V74h6.9v1.8H84v2h4.4v1.8H84v2.3H88.7z"/>
	</g>
</g>
</svg>
