<?xml version="1.0" encoding="utf-8"?>
<!-- Generator: Adobe Illustrator 19.2.1, SVG Export Plug-In . SVG Version: 6.00 Build 0)  -->
<svg version="1.1" id="Capa_1" xmlns="http://www.w3.org/2000/svg" xmlns:xlink="http://www.w3.org/1999/xlink" x="0px" y="0px"
	 viewBox="0 0 392 172.7" enable-background="new 0 0 392 172.7" xml:space="preserve">
<g>
	<defs>
		<path id="SVGID_1_" d="M123.5,8.7v69.1c0,9,2.4,15.7,7.1,20c4.8,4.3,11.7,6.4,20.9,6.4h19.8V78.5l-9.5,0c-2.4,0-4.3-0.6-5.5-1.7
			c-1.3-1.1-1.9-3.1-1.9-5.9V52.6h17V29h-17V8.7H123.5z"/>
	</defs>
	<clipPath id="SVGID_2_">
		<use xlink:href="#SVGID_1_"  overflow="visible"/>
	</clipPath>
	
		<linearGradient id="SVGID_3_" gradientUnits="userSpaceOnUse" x1="-2.608" y1="681.419" x2="0.1052" y2="681.419" gradientTransform="matrix(0 35.2732 35.2732 0 -23888.377 100.3601)">
		<stop  offset="0" style="stop-color:#006FB9"/>
		<stop  offset="9.341764e-002" style="stop-color:#007DC3"/>
		<stop  offset="0.2532" style="stop-color:#0092CF"/>
		<stop  offset="0.4198" style="stop-color:#00A2D8"/>
		<stop  offset="0.5938" style="stop-color:#00AEDE"/>
		<stop  offset="0.7801" style="stop-color:#17B6E1"/>
		<stop  offset="1" style="stop-color:#20B8E2"/>
	</linearGradient>
	<rect x="123.5" y="8.7" clip-path="url(#SVGID_2_)" fill="url(#SVGID_3_)" width="47.9" height="95.5"/>
</g>
<g>
	<defs>
		<rect id="SVGID_4_" x="181.2" y="8.7" width="30.8" height="95.5"/>
	</defs>
	<clipPath id="SVGID_5_">
		<use xlink:href="#SVGID_4_"  overflow="visible"/>
	</clipPath>
	
		<linearGradient id="SVGID_6_" gradientUnits="userSpaceOnUse" x1="-2.608" y1="682.2992" x2="0.1052" y2="682.2992" gradientTransform="matrix(0 35.2732 35.2732 0 -23870.2109 100.3601)">
		<stop  offset="0" style="stop-color:#006FB9"/>
		<stop  offset="9.341764e-002" style="stop-color:#007DC3"/>
		<stop  offset="0.2532" style="stop-color:#0092CF"/>
		<stop  offset="0.4198" style="stop-color:#00A2D8"/>
		<stop  offset="0.5938" style="stop-color:#00AEDE"/>
		<stop  offset="0.7801" style="stop-color:#17B6E1"/>
		<stop  offset="1" style="stop-color:#20B8E2"/>
	</linearGradient>
	<rect x="181.2" y="8.7" clip-path="url(#SVGID_5_)" fill="url(#SVGID_6_)" width="30.8" height="95.5"/>
</g>
<g>
	<defs>
		<path id="SVGID_7_" d="M251.6,85.1c-1.3-1.3-2-3-2-5.1v-0.3c0-2.3,0.8-4.2,2.4-5.8c1.6-1.6,3.9-2.3,6.9-2.3c1.2,0,2.5,0.1,3.7,0.3
			c1.2,0.2,2.3,0.5,3.2,0.9v3.1c0,3.5-0.9,6.2-2.7,8.2c-1.8,2-4,3-6.7,3C254.5,87.1,252.9,86.4,251.6,85.1 M240.4,30.4
			c-4.9,1-9.4,2.3-13.7,3.9l5.3,20.1c3.2-1.2,6.4-2.2,9.6-3c3.2-0.7,6.7-1.1,10.4-1.1c4.7,0,8.1,0.9,10.2,2.7
			c2.1,1.8,3.2,4.4,3.2,7.8v1.2c-0.8-0.4-1.9-0.7-3.2-1c-1.3-0.3-2.8-0.6-4.3-0.9c-1.5-0.3-3.2-0.5-4.9-0.6
			c-1.7-0.1-3.3-0.2-4.8-0.2c-8.5,0-15.3,1.9-20.2,5.8c-5,3.9-7.4,9.5-7.4,16.8v0.3c0,3.6,0.6,6.8,1.7,9.6c1.2,2.7,2.8,5.1,4.9,7
			c2.1,1.9,4.7,3.3,7.6,4.3c2.9,1,6.1,1.5,9.6,1.5c4.5,0,8.5-0.8,11.9-2.5c3.4-1.6,6.4-3.8,9-6.6v8.8h30.2V61.4
			c0-5.3-0.6-9.8-1.7-13.4c-1.2-3.6-3.1-6.8-5.9-9.6c-3.2-3.2-7.3-5.6-12.2-7.1c-4.9-1.5-11.1-2.3-18.6-2.3
			C250.9,28.9,245.3,29.4,240.4,30.4"/>
	</defs>
	<clipPath id="SVGID_8_">
		<use xlink:href="#SVGID_7_"  overflow="visible"/>
	</clipPath>
	
		<linearGradient id="SVGID_9_" gradientUnits="userSpaceOnUse" x1="-1.7642" y1="683.2341" x2="0.9486" y2="683.2341" gradientTransform="matrix(0 27.1631 27.1631 0 -18300.6074 78.4756)">
		<stop  offset="0" style="stop-color:#006FB9"/>
		<stop  offset="9.341764e-002" style="stop-color:#007DC3"/>
		<stop  offset="0.2532" style="stop-color:#0092CF"/>
		<stop  offset="0.4198" style="stop-color:#00A2D8"/>
		<stop  offset="0.5938" style="stop-color:#00AEDE"/>
		<stop  offset="0.7801" style="stop-color:#17B6E1"/>
		<stop  offset="1" style="stop-color:#20B8E2"/>
	</linearGradient>
	<rect x="220.7" y="28.9" clip-path="url(#SVGID_8_)" fill="url(#SVGID_9_)" width="74.9" height="75.6"/>
</g>
<g>
	<defs>
		<path id="SVGID_10_" d="M324.9,30.7c-4,1.1-7.3,2.7-10.2,4.8c-2.8,2.1-5,4.7-6.5,7.9c-1.5,3.2-2.3,6.7-2.3,10.8v0.3
			c0,3.8,0.7,7,2.1,9.6c1.4,2.6,3.4,4.9,6,6.7c2.6,1.9,5.7,3.4,9.4,4.7c3.7,1.3,7.9,2.5,12.5,3.7c3.7,1,6.1,1.8,7.1,2.3
			c1.1,0.6,1.6,1.2,1.6,2v0.3c0,1.6-1.5,2.4-4.4,2.4c-4.2,0-8.7-0.7-13.4-2c-4.7-1.4-9.3-3.4-13.8-6.2l-10.4,17.4
			c5.3,3.5,11.1,6.2,17.5,7.9c6.3,1.8,13.1,2.7,20.3,2.7c10.1,0,17.9-2.2,23.5-6.6c5.6-4.4,8.4-10.6,8.4-18.7v-0.3
			c0-3.8-0.7-6.9-2-9.6c-1.3-2.6-3.3-4.8-5.9-6.7c-2.6-1.9-5.7-3.5-9.4-4.8c-3.7-1.3-7.9-2.5-12.5-3.7c-3.7-0.9-6.1-1.7-7.3-2.3
			c-1.2-0.6-1.8-1.3-1.8-2v-0.3c0-1.5,1.4-2.3,4.3-2.3c3.1,0,6.8,0.6,11.1,1.8c4.3,1.2,8.4,2.9,12.3,5.1l9.7-18.2
			c-4.5-2.7-9.6-4.8-15.3-6.3C350,29.7,344.1,29,338,29C333.2,29,328.9,29.5,324.9,30.7"/>
	</defs>
	<clipPath id="SVGID_11_">
		<use xlink:href="#SVGID_10_"  overflow="visible"/>
	</clipPath>
	
		<linearGradient id="SVGID_12_" gradientUnits="userSpaceOnUse" x1="-1.7772" y1="685.065" x2="0.9358" y2="685.065" gradientTransform="matrix(0 27.1626 27.1626 0 -18270.6387 78.7919)">
		<stop  offset="0" style="stop-color:#006FB9"/>
		<stop  offset="9.341764e-002" style="stop-color:#007DC3"/>
		<stop  offset="0.2532" style="stop-color:#0092CF"/>
		<stop  offset="0.4198" style="stop-color:#00A2D8"/>
		<stop  offset="0.5938" style="stop-color:#00AEDE"/>
		<stop  offset="0.7801" style="stop-color:#17B6E1"/>
		<stop  offset="1" style="stop-color:#20B8E2"/>
	</linearGradient>
	<rect x="302.7" y="29" clip-path="url(#SVGID_11_)" fill="url(#SVGID_12_)" width="69.6" height="77"/>
</g>
<g>
	<defs>
		<path id="SVGID_13_" d="M87.1,30.1c-5,1.6-9.1,4-12.4,7.2c-2.4,2.4-4.2,5.1-5.4,8.1L67.2,51l20,53.2h36.2L92,28.9
			C90.3,29.3,88.6,29.7,87.1,30.1"/>
	</defs>
	<clipPath id="SVGID_14_">
		<use xlink:href="#SVGID_13_"  overflow="visible"/>
	</clipPath>
	
		<linearGradient id="SVGID_15_" gradientUnits="userSpaceOnUse" x1="-3.5129" y1="678.5146" x2="-0.8005" y2="678.5146" gradientTransform="matrix(9.1383 24.0481 24.0481 -9.1383 -16201.4795 6320.1396)">
		<stop  offset="0" style="stop-color:#006FB9"/>
		<stop  offset="9.341764e-002" style="stop-color:#007DC3"/>
		<stop  offset="0.2532" style="stop-color:#0092CF"/>
		<stop  offset="0.4198" style="stop-color:#00A2D8"/>
		<stop  offset="0.5938" style="stop-color:#00AEDE"/>
		<stop  offset="0.7801" style="stop-color:#17B6E1"/>
		<stop  offset="1" style="stop-color:#20B8E2"/>
	</linearGradient>
	<polygon clip-path="url(#SVGID_14_)" fill="url(#SVGID_15_)" points="116.3,10.3 148.4,94.7 74.3,122.9 42.2,38.4 	"/>
</g>
<g>
	<defs>
		<path id="SVGID_16_" d="M49.9,8.7l-39.8,95.5h36.6L67.2,51l2.1-5.5c1.2-3,3-5.7,5.4-8.1c3.2-3.2,7.4-5.7,12.4-7.2
			c1.5-0.5,3.1-0.9,4.9-1.2L83.6,8.7H49.9z"/>
	</defs>
	<clipPath id="SVGID_17_">
		<use xlink:href="#SVGID_16_"  overflow="visible"/>
	</clipPath>
	
		<linearGradient id="SVGID_18_" gradientUnits="userSpaceOnUse" x1="-8.1173" y1="687.2323" x2="-5.4056" y2="687.2323" gradientTransform="matrix(13.9481 -32.7058 -32.7058 -13.9481 22618.3145 9429.1943)">
		<stop  offset="0" style="stop-color:#006FB9"/>
		<stop  offset="9.341764e-002" style="stop-color:#007DC3"/>
		<stop  offset="0.2532" style="stop-color:#0092CF"/>
		<stop  offset="0.4198" style="stop-color:#00A2D8"/>
		<stop  offset="0.5938" style="stop-color:#00AEDE"/>
		<stop  offset="0.7801" style="stop-color:#17B6E1"/>
		<stop  offset="1" style="stop-color:#20B8E2"/>
	</linearGradient>
	<polygon clip-path="url(#SVGID_17_)" fill="url(#SVGID_18_)" points="-24.4,89.5 22.7,-20.8 126.5,23.4 79.4,133.8 	"/>
</g>
<path fill="#00B3E3" d="M205.1,160.4c-2.8,0.8-6.9,1.6-10.7,1.6c-12.9,0-23.3-6.8-23.3-20.7c0-13.1,10.8-19.6,23.3-19.6
	c4.1,0,6.6,0.5,10.6,1.2v10.3c-2.5-0.8-5-1.5-7.5-1.5c-6.4,0-11.2,3.4-11.2,9.8c0,6.7,4.5,10.1,10.7,10.1c2.7,0,5.4-0.6,8.1-1.5
	V160.4z"/>
<path fill="#00B3E3" d="M229.5,122.3v38.9h-14.9v-38.9H229.5z"/>
<path fill="#00B3E3" d="M240.4,122.3h22.4l7.2,27.4h0.1v-27.4h12.8v38.9h-22l-7.6-28.2h-0.1v28.2h-12.8V122.3z"/>
<path fill="#00B3E3" d="M293.3,122.3h33.7v9.4h-19.1v5.5h18.3v9.4h-18.3v5.3h19.5v9.4h-34.1V122.3z"/>
<path fill="#00B3E3" d="M369.1,133c-3.4-1.2-7.3-2-11.5-2c-2.3,0-6.4,0.1-6.4,2.6c0,5.1,20.5,0.3,20.5,15.3
	c0,10.4-10.3,13.1-19,13.1c-5.7,0-10.5-0.6-16.1-1.8V150c4,1.7,8.9,2.6,13.4,2.6c3.5,0,6.7-0.7,6.7-2.7c0-5.2-20.5-0.5-20.5-15.6
	c0-10.7,11.2-12.6,20-12.6c4.2,0,8.8,0.5,12.9,1.3V133z"/>
</svg>
